%TF.GenerationSoftware,KiCad,Pcbnew,10.0.1*%
%TF.CreationDate,2026-05-07T19:58:29+02:00*%
%TF.ProjectId,MCTRL,4d435452-4c2e-46b6-9963-61645f706362,rev?*%
%TF.SameCoordinates,Original*%
%TF.FileFunction,Copper,L2,Bot*%
%TF.FilePolarity,Positive*%
%FSLAX46Y46*%
G04 Gerber Fmt 4.6, Leading zero omitted, Abs format (unit mm)*
G04 Created by KiCad (PCBNEW 10.0.1) date 2026-05-07 19:58:29*
%MOMM*%
%LPD*%
G01*
G04 APERTURE LIST*
G04 Aperture macros list*
%AMRoundRect*
0 Rectangle with rounded corners*
0 $1 Rounding radius*
0 $2 $3 $4 $5 $6 $7 $8 $9 X,Y pos of 4 corners*
0 Add a 4 corners polygon primitive as box body*
4,1,4,$2,$3,$4,$5,$6,$7,$8,$9,$2,$3,0*
0 Add four circle primitives for the rounded corners*
1,1,$1+$1,$2,$3*
1,1,$1+$1,$4,$5*
1,1,$1+$1,$6,$7*
1,1,$1+$1,$8,$9*
0 Add four rect primitives between the rounded corners*
20,1,$1+$1,$2,$3,$4,$5,0*
20,1,$1+$1,$4,$5,$6,$7,0*
20,1,$1+$1,$6,$7,$8,$9,0*
20,1,$1+$1,$8,$9,$2,$3,0*%
G04 Aperture macros list end*
%TA.AperFunction,ComponentPad*%
%ADD10C,1.600000*%
%TD*%
%TA.AperFunction,ComponentPad*%
%ADD11RoundRect,0.250000X0.550000X0.550000X-0.550000X0.550000X-0.550000X-0.550000X0.550000X-0.550000X0*%
%TD*%
%TA.AperFunction,ComponentPad*%
%ADD12R,1.625600X1.625600*%
%TD*%
%TA.AperFunction,ComponentPad*%
%ADD13C,1.625600*%
%TD*%
%TA.AperFunction,ComponentPad*%
%ADD14C,1.600200*%
%TD*%
%TA.AperFunction,ComponentPad*%
%ADD15RoundRect,0.250001X0.949999X0.949999X-0.949999X0.949999X-0.949999X-0.949999X0.949999X-0.949999X0*%
%TD*%
%TA.AperFunction,ComponentPad*%
%ADD16C,2.400000*%
%TD*%
%TA.AperFunction,ComponentPad*%
%ADD17RoundRect,0.250001X-0.949999X0.949999X-0.949999X-0.949999X0.949999X-0.949999X0.949999X0.949999X0*%
%TD*%
%TA.AperFunction,ComponentPad*%
%ADD18RoundRect,0.250001X-0.949999X-0.949999X0.949999X-0.949999X0.949999X0.949999X-0.949999X0.949999X0*%
%TD*%
%TA.AperFunction,ViaPad*%
%ADD19C,0.600000*%
%TD*%
%TA.AperFunction,Conductor*%
%ADD20C,0.200000*%
%TD*%
%TA.AperFunction,Conductor*%
%ADD21C,0.500000*%
%TD*%
%TA.AperFunction,Conductor*%
%ADD22C,1.000000*%
%TD*%
G04 APERTURE END LIST*
D10*
%TO.P,U1,14,NC_14*%
%TO.N,unconnected-(U1-NC-Pad14)*%
X135935000Y-125700000D03*
%TO.P,U1,13,VSS_13*%
%TO.N,VSS*%
X135935000Y-123160000D03*
%TO.P,U1,12,LIN_12*%
%TO.N,Net-(U1-LIN)*%
X135935000Y-120620000D03*
%TO.P,U1,11,SD_11*%
%TO.N,Net-(U1-SD)*%
X135935000Y-118080000D03*
%TO.P,U1,10,HIN_10*%
%TO.N,Net-(U1-HIN)*%
X135935000Y-115540000D03*
%TO.P,U1,9,VDD_9*%
%TO.N,+3.3V*%
X135935000Y-113000000D03*
%TO.P,U1,8,NC_8*%
%TO.N,unconnected-(U1-NC-Pad8)*%
X135935000Y-110460000D03*
%TO.P,U1,7,HO_7*%
%TO.N,Net-(D2-K)*%
X143555000Y-110460000D03*
%TO.P,U1,6,VB_6*%
%TO.N,Net-(D1-K)*%
X143555000Y-113000000D03*
%TO.P,U1,5,VS_5*%
%TO.N,Net-(U1-VS)*%
X143555000Y-115540000D03*
%TO.P,U1,4,NC_4*%
%TO.N,unconnected-(U1-NC-Pad4)*%
X143555000Y-118080000D03*
%TO.P,U1,3,VCC_3*%
%TO.N,+10V*%
X143555000Y-120620000D03*
%TO.P,U1,2,COM_2*%
%TO.N,COM*%
X143555000Y-123160000D03*
D11*
%TO.P,U1,1,LO_1*%
%TO.N,Net-(D3-A)*%
X143555000Y-125700000D03*
%TD*%
D12*
%TO.P,U3,1,GATE_1*%
%TO.N,Net-(D2-A)*%
X185000000Y-114540000D03*
D13*
%TO.P,U3,2,DRAIN_2*%
%TO.N,+VDD*%
X185000000Y-112000000D03*
%TO.P,U3,3,SOURCE_3*%
%TO.N,Net-(U1-VS)*%
X185000000Y-109460000D03*
%TD*%
D14*
%TO.P,J3,1,1_1*%
%TO.N,Net-(U2-LIN)*%
X124000000Y-112499999D03*
%TO.P,J3,2,2_2*%
%TO.N,Net-(U2-HIN)*%
X124000000Y-116000000D03*
%TO.P,J3,3,3_3*%
%TO.N,Net-(U1-HIN)*%
X124000000Y-119500000D03*
%TO.P,J3,4,4_4*%
%TO.N,Net-(U1-LIN)*%
X124000000Y-123000001D03*
%TD*%
%TO.P,J2,1,1_1*%
%TO.N,+10V*%
X124000000Y-87499999D03*
%TO.P,J2,2,2_2*%
%TO.N,+3.3V*%
X124000000Y-91000000D03*
%TO.P,J2,3,3_3*%
%TO.N,Net-(U1-SD)*%
X124000000Y-94500000D03*
%TO.P,J2,4,4_4*%
%TO.N,VSS*%
X124000000Y-98000001D03*
%TD*%
D12*
%TO.P,U5,1,GATE_1*%
%TO.N,Net-(D5-A)*%
X185000000Y-100540000D03*
D13*
%TO.P,U5,2,DRAIN_2*%
%TO.N,+VDD*%
X185000000Y-98000000D03*
%TO.P,U5,3,SOURCE_3*%
%TO.N,Net-(U2-VS)*%
X185000000Y-95460000D03*
%TD*%
D10*
%TO.P,R4,1*%
%TO.N,Net-(D6-K)*%
X163500000Y-87500000D03*
%TO.P,R4,2*%
%TO.N,Net-(D6-A)*%
X176200000Y-87500000D03*
%TD*%
%TO.P,R2,1*%
%TO.N,Net-(D3-K)*%
X176200000Y-122500000D03*
%TO.P,R2,2*%
%TO.N,Net-(D3-A)*%
X163500000Y-122500000D03*
%TD*%
D15*
%TO.P,D3,1,K_1*%
%TO.N,Net-(D3-K)*%
X176200000Y-126500000D03*
D16*
%TO.P,D3,2,A_2*%
%TO.N,Net-(D3-A)*%
X163500000Y-126500000D03*
%TD*%
D17*
%TO.P,D1,1,K_1*%
%TO.N,Net-(D1-K)*%
X159000000Y-109000000D03*
D16*
%TO.P,D1,2,A_2*%
%TO.N,+10V*%
X159000000Y-121700000D03*
%TD*%
D10*
%TO.P,R3,1*%
%TO.N,Net-(D5-K)*%
X180300000Y-87500000D03*
%TO.P,R3,2*%
%TO.N,Net-(D5-A)*%
X193000000Y-87500000D03*
%TD*%
D18*
%TO.P,D2,1,K_1*%
%TO.N,Net-(D2-K)*%
X180233199Y-126473465D03*
D16*
%TO.P,D2,2,A_2*%
%TO.N,Net-(D2-A)*%
X192933199Y-126473465D03*
%TD*%
D14*
%TO.P,J1,1,1_1*%
%TO.N,+VDD*%
X196000000Y-110589600D03*
%TO.P,J1,2,2_2*%
%TO.N,Net-(U1-VS)*%
X196000000Y-107089599D03*
%TO.P,J1,3,3_3*%
%TO.N,Net-(U2-VS)*%
X196000000Y-103589599D03*
%TO.P,J1,4,4_4*%
%TO.N,COM*%
X196000000Y-100089598D03*
%TD*%
D12*
%TO.P,U6,1,GATE_1*%
%TO.N,Net-(D6-A)*%
X172000000Y-100540000D03*
D13*
%TO.P,U6,2,DRAIN_2*%
%TO.N,Net-(U2-VS)*%
X172000000Y-98000000D03*
%TO.P,U6,3,SOURCE_3*%
%TO.N,COM*%
X172000000Y-95460000D03*
%TD*%
D18*
%TO.P,D5,1,K_1*%
%TO.N,Net-(D5-K)*%
X180300000Y-83500000D03*
D16*
%TO.P,D5,2,A_2*%
%TO.N,Net-(D5-A)*%
X193000000Y-83500000D03*
%TD*%
D11*
%TO.P,U2,1,LO_1*%
%TO.N,Net-(D6-K)*%
X143555000Y-99700000D03*
D10*
%TO.P,U2,2,COM_2*%
%TO.N,COM*%
X143555000Y-97160000D03*
%TO.P,U2,3,VCC_3*%
%TO.N,+10V*%
X143555000Y-94620000D03*
%TO.P,U2,4,NC_4*%
%TO.N,unconnected-(U2-NC-Pad4)*%
X143555000Y-92080000D03*
%TO.P,U2,5,VS_5*%
%TO.N,Net-(U2-VS)*%
X143555000Y-89540000D03*
%TO.P,U2,6,VB_6*%
%TO.N,Net-(D4-K)*%
X143555000Y-87000000D03*
%TO.P,U2,7,HO_7*%
%TO.N,Net-(D5-K)*%
X143555000Y-84460000D03*
%TO.P,U2,8,NC_8*%
%TO.N,unconnected-(U2-NC-Pad8)*%
X135935000Y-84460000D03*
%TO.P,U2,9,VDD_9*%
%TO.N,+3.3V*%
X135935000Y-87000000D03*
%TO.P,U2,10,HIN_10*%
%TO.N,Net-(U2-HIN)*%
X135935000Y-89540000D03*
%TO.P,U2,11,SD_11*%
%TO.N,Net-(U1-SD)*%
X135935000Y-92080000D03*
%TO.P,U2,12,LIN_12*%
%TO.N,Net-(U2-LIN)*%
X135935000Y-94620000D03*
%TO.P,U2,13,VSS_13*%
%TO.N,VSS*%
X135935000Y-97160000D03*
%TO.P,U2,14,NC_14*%
%TO.N,unconnected-(U2-NC-Pad14)*%
X135935000Y-99700000D03*
%TD*%
D18*
%TO.P,D6,1,K_1*%
%TO.N,Net-(D6-K)*%
X163500000Y-83500000D03*
D16*
%TO.P,D6,2,A_2*%
%TO.N,Net-(D6-A)*%
X176200000Y-83500000D03*
%TD*%
D12*
%TO.P,U4,1,GATE_1*%
%TO.N,Net-(D3-K)*%
X172000000Y-114540000D03*
D13*
%TO.P,U4,2,DRAIN_2*%
%TO.N,Net-(U1-VS)*%
X172000000Y-112000000D03*
%TO.P,U4,3,SOURCE_3*%
%TO.N,COM*%
X172000000Y-109460000D03*
%TD*%
D17*
%TO.P,D4,1,K_1*%
%TO.N,Net-(D4-K)*%
X159000000Y-88650000D03*
D16*
%TO.P,D4,2,A_2*%
%TO.N,+10V*%
X159000000Y-101350000D03*
%TD*%
D10*
%TO.P,R1,1*%
%TO.N,Net-(D2-K)*%
X180233199Y-122473465D03*
%TO.P,R1,2*%
%TO.N,Net-(D2-A)*%
X192933199Y-122473465D03*
%TD*%
D19*
%TO.N,Net-(U1-SD)*%
X133250000Y-103750000D03*
%TD*%
%TO.N,Net-(U1-SD)*%
D20*
X124000000Y-94500000D02*
X133250000Y-103750000D01*
X126670000Y-92080000D02*
X135935000Y-92080000D01*
X124000000Y-94500000D02*
X124250000Y-94500000D01*
X124250000Y-94500000D02*
X126670000Y-92080000D01*
%TO.N,Net-(U1-LIN)*%
X129361503Y-119560000D02*
X129361503Y-120380000D01*
X129001503Y-119320000D02*
X129121503Y-119320000D01*
X128761503Y-120380000D02*
X128761503Y-119560000D01*
X133921503Y-119320000D02*
G75*
G02*
X134161500Y-119560000I-3J-240000D01*
G01*
X132721503Y-119320000D02*
G75*
G02*
X132961500Y-119560000I-3J-240000D01*
G01*
X129721503Y-121920000D02*
G75*
G03*
X129961500Y-121680000I-3J240000D01*
G01*
X133561503Y-119560000D02*
G75*
G02*
X133801503Y-119320003I239997J0D01*
G01*
X133321503Y-121920000D02*
G75*
G03*
X133561500Y-121680000I-3J240000D01*
G01*
X132001503Y-121920000D02*
X132121503Y-121920000D01*
X132361503Y-119560000D02*
G75*
G02*
X132601503Y-119320003I239997J0D01*
G01*
X134161503Y-120380000D02*
G75*
G03*
X134401503Y-120619997I239997J0D01*
G01*
X134401503Y-120620000D02*
X134521503Y-120620000D01*
X132961503Y-121680000D02*
G75*
G03*
X133201503Y-121919997I239997J0D01*
G01*
X126380001Y-120620000D02*
X128521503Y-120620000D01*
X132361503Y-120620000D02*
X132361503Y-119560000D01*
X132121503Y-121920000D02*
G75*
G03*
X132361500Y-121680000I-3J240000D01*
G01*
X131761503Y-121680000D02*
G75*
G03*
X132001503Y-121919997I239997J0D01*
G01*
X131161503Y-119560000D02*
G75*
G02*
X131401503Y-119320003I239997J0D01*
G01*
X130921503Y-121920000D02*
G75*
G03*
X131161500Y-121680000I-3J240000D01*
G01*
X129121503Y-119320000D02*
G75*
G02*
X129361500Y-119560000I-3J-240000D01*
G01*
X128761503Y-119560000D02*
G75*
G02*
X129001503Y-119320003I239997J0D01*
G01*
X128521503Y-120620000D02*
G75*
G03*
X128761500Y-120380000I-3J240000D01*
G01*
X131401503Y-119320000D02*
X131521503Y-119320000D01*
X131521503Y-119320000D02*
G75*
G02*
X131761500Y-119560000I-3J-240000D01*
G01*
X124000000Y-123000001D02*
X126380001Y-120620000D01*
X129961503Y-119560000D02*
G75*
G02*
X130201503Y-119320003I239997J0D01*
G01*
X130321503Y-119320000D02*
G75*
G02*
X130561500Y-119560000I-3J-240000D01*
G01*
X129361503Y-120380000D02*
X129361503Y-120620000D01*
X133561503Y-120620000D02*
X133561503Y-120380000D01*
X129361503Y-121680000D02*
G75*
G03*
X129601503Y-121919997I239997J0D01*
G01*
X130561503Y-121680000D02*
G75*
G03*
X130801503Y-121919997I239997J0D01*
G01*
X130201503Y-119320000D02*
X130321503Y-119320000D01*
X134161503Y-119560000D02*
X134161503Y-120380000D01*
X132961503Y-120620000D02*
X132961503Y-121680000D01*
X132961503Y-119560000D02*
X132961503Y-120620000D01*
X130561503Y-119560000D02*
X130561503Y-120620000D01*
X134521503Y-120620000D02*
X135004403Y-120620000D01*
X131161503Y-121680000D02*
X131161503Y-120620000D01*
X129361503Y-120620000D02*
X129361503Y-121680000D01*
X129601503Y-121920000D02*
X129721503Y-121920000D01*
X132601503Y-119320000D02*
X132721503Y-119320000D01*
X130801503Y-121920000D02*
X130921503Y-121920000D01*
X131761503Y-119560000D02*
X131761503Y-120620000D01*
X129961503Y-121680000D02*
X129961503Y-120620000D01*
X129961503Y-120620000D02*
X129961503Y-119560000D01*
X135004403Y-120620000D02*
X135935000Y-120620000D01*
X131161503Y-120620000D02*
X131161503Y-119560000D01*
X133201503Y-121920000D02*
X133321503Y-121920000D01*
X133801503Y-119320000D02*
X133921503Y-119320000D01*
X132361503Y-121680000D02*
X132361503Y-120620000D01*
X130561503Y-120620000D02*
X130561503Y-121680000D01*
X131761503Y-120620000D02*
X131761503Y-121680000D01*
X133561503Y-121680000D02*
X133561503Y-120620000D01*
X133561503Y-120380000D02*
X133561503Y-119560000D01*
%TO.N,Net-(U1-HIN)*%
X129621762Y-116840000D02*
X129741762Y-116840000D01*
X128541762Y-115540000D02*
G75*
G03*
X128781800Y-115300000I38J240000D01*
G01*
X128781762Y-115300000D02*
X128781762Y-114480000D01*
X128781762Y-114480000D02*
G75*
G02*
X129021762Y-114239962I240038J0D01*
G01*
X129981762Y-114480000D02*
G75*
G02*
X130221762Y-114239962I240038J0D01*
G01*
X129381762Y-115540000D02*
X129381762Y-116600000D01*
X134181762Y-114480000D02*
X134181762Y-115300000D01*
X133821762Y-114240000D02*
X133941762Y-114240000D01*
X132981762Y-114480000D02*
X132981762Y-115540000D01*
X132621762Y-114240000D02*
X132741762Y-114240000D01*
X133581762Y-115300000D02*
X133581762Y-114480000D01*
X133581762Y-115540000D02*
X133581762Y-115300000D01*
X131181762Y-115540000D02*
X131181762Y-114480000D01*
X131421762Y-114240000D02*
X131541762Y-114240000D01*
X131781762Y-115540000D02*
X131781762Y-116600000D01*
X127960000Y-115540000D02*
X128541762Y-115540000D01*
X134181762Y-115300000D02*
G75*
G03*
X134421762Y-115540038I240038J0D01*
G01*
X133221762Y-116840000D02*
X133341762Y-116840000D01*
X133341762Y-116840000D02*
G75*
G03*
X133581800Y-116600000I38J240000D01*
G01*
X132981762Y-115540000D02*
X132981762Y-116600000D01*
X134421762Y-115540000D02*
X134541762Y-115540000D01*
X131541762Y-114240000D02*
G75*
G02*
X131781800Y-114480000I38J-240000D01*
G01*
X129741762Y-116840000D02*
G75*
G03*
X129981800Y-116600000I38J240000D01*
G01*
X130581762Y-114480000D02*
X130581762Y-115540000D01*
X132981762Y-116600000D02*
G75*
G03*
X133221762Y-116840038I240038J0D01*
G01*
X132141762Y-116840000D02*
G75*
G03*
X132381800Y-116600000I38J240000D01*
G01*
X129981762Y-115540000D02*
X129981762Y-114480000D01*
X129981762Y-116600000D02*
X129981762Y-115540000D01*
X124000000Y-119500000D02*
X127960000Y-115540000D01*
X132021762Y-116840000D02*
X132141762Y-116840000D01*
X131781762Y-114480000D02*
X131781762Y-115540000D01*
X132381762Y-115540000D02*
X132381762Y-114480000D01*
X131781762Y-116600000D02*
G75*
G03*
X132021762Y-116840038I240038J0D01*
G01*
X132381762Y-116600000D02*
X132381762Y-115540000D01*
X133941762Y-114240000D02*
G75*
G02*
X134181800Y-114480000I38J-240000D01*
G01*
X133581762Y-114480000D02*
G75*
G02*
X133821762Y-114239962I240038J0D01*
G01*
X130221762Y-114240000D02*
X130341762Y-114240000D01*
X132741762Y-114240000D02*
G75*
G02*
X132981800Y-114480000I38J-240000D01*
G01*
X129381762Y-114480000D02*
X129381762Y-115300000D01*
X130941762Y-116840000D02*
G75*
G03*
X131181800Y-116600000I38J240000D01*
G01*
X130341762Y-114240000D02*
G75*
G02*
X130581800Y-114480000I38J-240000D01*
G01*
X134541762Y-115540000D02*
X134822071Y-115540000D01*
X131181762Y-114480000D02*
G75*
G02*
X131421762Y-114239962I240038J0D01*
G01*
X129141762Y-114240000D02*
G75*
G02*
X129381800Y-114480000I38J-240000D01*
G01*
X129381762Y-116600000D02*
G75*
G03*
X129621762Y-116840038I240038J0D01*
G01*
X131181762Y-116600000D02*
X131181762Y-115540000D01*
X129021762Y-114240000D02*
X129141762Y-114240000D01*
X132381762Y-114480000D02*
G75*
G02*
X132621762Y-114239962I240038J0D01*
G01*
X134822071Y-115540000D02*
X135935000Y-115540000D01*
X130581762Y-116600000D02*
G75*
G03*
X130821762Y-116840038I240038J0D01*
G01*
X130821762Y-116840000D02*
X130941762Y-116840000D01*
X130581762Y-115540000D02*
X130581762Y-116600000D01*
X133581762Y-116600000D02*
X133581762Y-115540000D01*
X129381762Y-115300000D02*
X129381762Y-115540000D01*
%TO.N,Net-(U2-LIN)*%
X126375000Y-105250000D02*
X127386995Y-105250000D01*
X124000000Y-107625000D02*
X126375000Y-105250000D01*
X124000000Y-112499999D02*
X124000000Y-107625000D01*
X128226995Y-105510000D02*
G75*
G03*
X128466995Y-105750005I240005J0D01*
G01*
X130026995Y-105250000D02*
X130026995Y-104990000D01*
X136250000Y-105250000D02*
X137500000Y-104000000D01*
X127386995Y-105250000D02*
G75*
G03*
X127627000Y-105010000I5J240000D01*
G01*
X131226995Y-105510000D02*
X131226995Y-105490000D01*
X137500000Y-96185000D02*
X135935000Y-94620000D01*
X131864248Y-105250000D02*
X136250000Y-105250000D01*
X130626995Y-105250000D02*
X130626995Y-105490000D01*
X137500000Y-104000000D02*
X137500000Y-96185000D01*
X128826995Y-104990000D02*
G75*
G02*
X129066995Y-104749995I240005J0D01*
G01*
X130986995Y-105750000D02*
G75*
G03*
X131227000Y-105510000I5J240000D01*
G01*
X131586995Y-105250000D02*
X131864248Y-105250000D01*
X130026995Y-104990000D02*
G75*
G02*
X130266995Y-104749995I240005J0D01*
G01*
X130386995Y-104750000D02*
G75*
G02*
X130627000Y-104990000I5J-240000D01*
G01*
X128226995Y-104990000D02*
X128226995Y-105010000D01*
X131226995Y-105490000D02*
G75*
G02*
X131466995Y-105249995I240005J0D01*
G01*
X127626995Y-105010000D02*
X127626995Y-104990000D01*
X130626995Y-105510000D02*
G75*
G03*
X130866995Y-105750005I240005J0D01*
G01*
X128226995Y-105010000D02*
X128226995Y-105250000D01*
X130626995Y-105490000D02*
X130626995Y-105510000D01*
X129426995Y-105510000D02*
G75*
G03*
X129666995Y-105750005I240005J0D01*
G01*
X130626995Y-104990000D02*
X130626995Y-105250000D01*
X130266995Y-104750000D02*
X130386995Y-104750000D01*
X130026995Y-105510000D02*
X130026995Y-105250000D01*
X128826995Y-105250000D02*
X128826995Y-104990000D01*
X130866995Y-105750000D02*
X130986995Y-105750000D01*
X128826995Y-105510000D02*
X128826995Y-105250000D01*
X129426995Y-105250000D02*
X129426995Y-105510000D01*
X129786995Y-105750000D02*
G75*
G03*
X130027000Y-105510000I5J240000D01*
G01*
X127986995Y-104750000D02*
G75*
G02*
X128227000Y-104990000I5J-240000D01*
G01*
X128466995Y-105750000D02*
X128586995Y-105750000D01*
X131466995Y-105250000D02*
X131586995Y-105250000D01*
X128586995Y-105750000D02*
G75*
G03*
X128827000Y-105510000I5J240000D01*
G01*
X129666995Y-105750000D02*
X129786995Y-105750000D01*
X129426995Y-104990000D02*
X129426995Y-105250000D01*
X129066995Y-104750000D02*
X129186995Y-104750000D01*
X128226995Y-105250000D02*
X128226995Y-105510000D01*
X127866995Y-104750000D02*
X127986995Y-104750000D01*
X127626995Y-104990000D02*
G75*
G02*
X127866995Y-104749995I240005J0D01*
G01*
X129186995Y-104750000D02*
G75*
G02*
X129427000Y-104990000I5J-240000D01*
G01*
%TO.N,Net-(U2-HIN)*%
X134250000Y-105750000D02*
X124000000Y-116000000D01*
X138000000Y-91605000D02*
X138000000Y-104250000D01*
X135935000Y-89540000D02*
X138000000Y-91605000D01*
X138000000Y-104250000D02*
X136500000Y-105750000D01*
X136500000Y-105750000D02*
X134250000Y-105750000D01*
%TO.N,+10V*%
D21*
X140750000Y-83750000D02*
X140750000Y-93500000D01*
X138800000Y-81800000D02*
X140750000Y-83750000D01*
X140750000Y-93500000D02*
X140750000Y-119550000D01*
X140750000Y-119550000D02*
X141820000Y-120620000D01*
X141870000Y-94620000D02*
X143555000Y-94620000D01*
X124000000Y-87499999D02*
X129699999Y-81800000D01*
X141820000Y-120620000D02*
X143555000Y-120620000D01*
X129699999Y-81800000D02*
X138800000Y-81800000D01*
X140750000Y-93500000D02*
X141870000Y-94620000D01*
%TO.N,COM*%
D22*
X172080000Y-95460000D02*
X172000000Y-95460000D01*
X172000000Y-109460000D02*
X176200000Y-105260000D01*
X176200000Y-105260000D02*
X176200000Y-91660000D01*
X163135596Y-97164404D02*
X143559404Y-97164404D01*
X143559404Y-97164404D02*
X143555000Y-97160000D01*
X190100000Y-91500000D02*
X176040000Y-91500000D01*
X196000000Y-100089598D02*
X196000000Y-97400000D01*
X176200000Y-91660000D02*
X176040000Y-91500000D01*
X172000000Y-95460000D02*
X164840000Y-95460000D01*
X196000000Y-97400000D02*
X190100000Y-91500000D01*
X164840000Y-95460000D02*
X163135596Y-97164404D01*
X176040000Y-91500000D02*
X172080000Y-95460000D01*
%TO.N,+VDD*%
X189500000Y-100300000D02*
X187200000Y-98000000D01*
X192350000Y-110600000D02*
X189500000Y-107750000D01*
X187200000Y-98000000D02*
X185000000Y-98000000D01*
X189500000Y-107750000D02*
X189500000Y-100300000D01*
X196000000Y-110589600D02*
X195989600Y-110600000D01*
X195989600Y-110600000D02*
X192350000Y-110600000D01*
%TO.N,VSS*%
D21*
X132845000Y-126250000D02*
X135935000Y-123160000D01*
X124500000Y-126250000D02*
X132845000Y-126250000D01*
X122000000Y-105500000D02*
X122000000Y-123750000D01*
X122000000Y-123750000D02*
X124500000Y-126250000D01*
X124000000Y-103500000D02*
X122000000Y-105500000D01*
X124000000Y-98000001D02*
X124000000Y-103500000D01*
%TO.N,Net-(D6-K)*%
X163500000Y-87500000D02*
X163500000Y-83500000D01*
%TO.N,Net-(D3-A)*%
X144355000Y-126500000D02*
X143555000Y-125700000D01*
X163500000Y-126500000D02*
X144355000Y-126500000D01*
X163500000Y-126500000D02*
X163500000Y-122500000D01*
%TO.N,Net-(D2-K)*%
X180233199Y-126473465D02*
X180233199Y-122473465D01*
%TO.N,Net-(D5-K)*%
X180300000Y-83500000D02*
X180300000Y-87500000D01*
X177800000Y-81000000D02*
X147015000Y-81000000D01*
X180300000Y-83500000D02*
X177800000Y-81000000D01*
X147015000Y-81000000D02*
X143555000Y-84460000D01*
%TO.N,COM*%
D22*
X165540000Y-109460000D02*
X172000000Y-109460000D01*
X143555000Y-123160000D02*
X151840000Y-123160000D01*
X151840000Y-123160000D02*
X165540000Y-109460000D01*
%TD*%
M02*
