%TF.GenerationSoftware,KiCad,Pcbnew,10.0.1*%
%TF.CreationDate,2026-05-07T19:58:29+02:00*%
%TF.ProjectId,MCTRL,4d435452-4c2e-46b6-9963-61645f706362,rev?*%
%TF.SameCoordinates,Original*%
%TF.FileFunction,Soldermask,Top*%
%TF.FilePolarity,Negative*%
%FSLAX46Y46*%
G04 Gerber Fmt 4.6, Leading zero omitted, Abs format (unit mm)*
G04 Created by KiCad (PCBNEW 10.0.1) date 2026-05-07 19:58:29*
%MOMM*%
%LPD*%
G01*
G04 APERTURE LIST*
G04 Aperture macros list*
%AMRoundRect*
0 Rectangle with rounded corners*
0 $1 Rounding radius*
0 $2 $3 $4 $5 $6 $7 $8 $9 X,Y pos of 4 corners*
0 Add a 4 corners polygon primitive as box body*
4,1,4,$2,$3,$4,$5,$6,$7,$8,$9,$2,$3,0*
0 Add four circle primitives for the rounded corners*
1,1,$1+$1,$2,$3*
1,1,$1+$1,$4,$5*
1,1,$1+$1,$6,$7*
1,1,$1+$1,$8,$9*
0 Add four rect primitives between the rounded corners*
20,1,$1+$1,$2,$3,$4,$5,0*
20,1,$1+$1,$4,$5,$6,$7,0*
20,1,$1+$1,$6,$7,$8,$9,0*
20,1,$1+$1,$8,$9,$2,$3,0*%
G04 Aperture macros list end*
%ADD10C,1.600000*%
%ADD11RoundRect,0.250000X0.550000X0.550000X-0.550000X0.550000X-0.550000X-0.550000X0.550000X-0.550000X0*%
%ADD12R,1.136599X2.990799*%
%ADD13R,1.625600X1.625600*%
%ADD14C,1.625600*%
%ADD15C,1.600200*%
%ADD16R,1.212799X2.406599*%
%ADD17RoundRect,0.250001X0.949999X0.949999X-0.949999X0.949999X-0.949999X-0.949999X0.949999X-0.949999X0*%
%ADD18C,2.400000*%
%ADD19RoundRect,0.250001X-0.949999X0.949999X-0.949999X-0.949999X0.949999X-0.949999X0.949999X0.949999X0*%
%ADD20RoundRect,0.250001X-0.949999X-0.949999X0.949999X-0.949999X0.949999X0.949999X-0.949999X0.949999X0*%
G04 APERTURE END LIST*
D10*
%TO.C,U1*%
X135935000Y-125700000D03*
X135935000Y-123160000D03*
X135935000Y-120620000D03*
X135935000Y-118080000D03*
X135935000Y-115540000D03*
X135935000Y-113000000D03*
X135935000Y-110460000D03*
X143555000Y-110460000D03*
X143555000Y-113000000D03*
X143555000Y-115540000D03*
X143555000Y-118080000D03*
X143555000Y-120620000D03*
X143555000Y-123160000D03*
D11*
X143555000Y-125700000D03*
%TD*%
D12*
%TO.C,C2*%
X151000000Y-119696501D03*
X151000000Y-125503499D03*
%TD*%
D13*
%TO.C,U3*%
X185000000Y-114540000D03*
D14*
X185000000Y-112000000D03*
X185000000Y-109460000D03*
%TD*%
D15*
%TO.C,J3*%
X124000000Y-112499999D03*
X124000000Y-116000000D03*
X124000000Y-119500000D03*
X124000000Y-123000001D03*
%TD*%
D16*
%TO.C,C1*%
X131500000Y-116201401D03*
X131500000Y-119798599D03*
%TD*%
D15*
%TO.C,J2*%
X124000000Y-87499999D03*
X124000000Y-91000000D03*
X124000000Y-94500000D03*
X124000000Y-98000001D03*
%TD*%
D13*
%TO.C,U5*%
X185000000Y-100540000D03*
D14*
X185000000Y-98000000D03*
X185000000Y-95460000D03*
%TD*%
D10*
%TO.C,R4*%
X163500000Y-87500000D03*
X176200000Y-87500000D03*
%TD*%
D12*
%TO.C,C6*%
X150981599Y-93696501D03*
X150981599Y-99503499D03*
%TD*%
D10*
%TO.C,R2*%
X176200000Y-122500000D03*
X163500000Y-122500000D03*
%TD*%
D17*
%TO.C,D3*%
X176200000Y-126500000D03*
D18*
X163500000Y-126500000D03*
%TD*%
D19*
%TO.C,D1*%
X159000000Y-109000000D03*
D18*
X159000000Y-121700000D03*
%TD*%
D10*
%TO.C,R3*%
X180300000Y-87500000D03*
X193000000Y-87500000D03*
%TD*%
D16*
%TO.C,C5*%
X151000000Y-84701401D03*
X151000000Y-88298599D03*
%TD*%
D20*
%TO.C,D2*%
X180233199Y-126473465D03*
D18*
X192933199Y-126473465D03*
%TD*%
D15*
%TO.C,J1*%
X196000000Y-110589600D03*
X196000000Y-107089599D03*
X196000000Y-103589599D03*
X196000000Y-100089598D03*
%TD*%
D16*
%TO.C,C3*%
X150969855Y-110707430D03*
X150969855Y-114304628D03*
%TD*%
D13*
%TO.C,U6*%
X172000000Y-100540000D03*
D14*
X172000000Y-98000000D03*
X172000000Y-95460000D03*
%TD*%
D20*
%TO.C,D5*%
X180300000Y-83500000D03*
D18*
X193000000Y-83500000D03*
%TD*%
D11*
%TO.C,U2*%
X143555000Y-99700000D03*
D10*
X143555000Y-97160000D03*
X143555000Y-94620000D03*
X143555000Y-92080000D03*
X143555000Y-89540000D03*
X143555000Y-87000000D03*
X143555000Y-84460000D03*
X135935000Y-84460000D03*
X135935000Y-87000000D03*
X135935000Y-89540000D03*
X135935000Y-92080000D03*
X135935000Y-94620000D03*
X135935000Y-97160000D03*
X135935000Y-99700000D03*
%TD*%
D20*
%TO.C,D6*%
X163500000Y-83500000D03*
D18*
X176200000Y-83500000D03*
%TD*%
D13*
%TO.C,U4*%
X172000000Y-114540000D03*
D14*
X172000000Y-112000000D03*
X172000000Y-109460000D03*
%TD*%
D19*
%TO.C,D4*%
X159000000Y-88650000D03*
D18*
X159000000Y-101350000D03*
%TD*%
D16*
%TO.C,C4*%
X131500000Y-90201401D03*
X131500000Y-93798599D03*
%TD*%
D10*
%TO.C,R1*%
X180233199Y-122473465D03*
X192933199Y-122473465D03*
%TD*%
M02*
