M48
; DRILL file KiCad 10.0.1 date 2026-05-07T19:57:54
; FORMAT={-:-/ absolute / metric / decimal}
; #@! TF.CreationDate,2026-05-07T19:57:54+02:00
; #@! TF.GenerationSoftware,Kicad,Pcbnew,10.0.1
; #@! TF.FileFunction,Plated,1,2,PTH
FMAT,2
METRIC
; #@! TA.AperFunction,Plated,PTH,ViaDrill
T1C0.300
; #@! TA.AperFunction,Plated,PTH,ComponentDrill
T2C0.800
; #@! TA.AperFunction,Plated,PTH,ComponentDrill
T3C1.092
; #@! TA.AperFunction,Plated,PTH,ComponentDrill
T4C1.118
; #@! TA.AperFunction,Plated,PTH,ComponentDrill
T5C1.200
%
G90
G05
T1
X133.25Y-103.75
T2
X135.935Y-84.46
X135.935Y-87.0
X135.935Y-89.54
X135.935Y-92.08
X135.935Y-94.62
X135.935Y-97.16
X135.935Y-99.7
X135.935Y-110.46
X135.935Y-113.0
X135.935Y-115.54
X135.935Y-118.08
X135.935Y-120.62
X135.935Y-123.16
X135.935Y-125.7
X143.555Y-84.46
X143.555Y-87.0
X143.555Y-89.54
X143.555Y-92.08
X143.555Y-94.62
X143.555Y-97.16
X143.555Y-99.7
X143.555Y-110.46
X143.555Y-113.0
X143.555Y-115.54
X143.555Y-118.08
X143.555Y-120.62
X143.555Y-123.16
X143.555Y-125.7
X163.5Y-87.5
X163.5Y-122.5
X176.2Y-87.5
X176.2Y-122.5
X180.233Y-122.473
X180.3Y-87.5
X192.933Y-122.473
X193.0Y-87.5
T3
X124.0Y-87.5
X124.0Y-91.0
X124.0Y-94.5
X124.0Y-98.0
X124.0Y-112.5
X124.0Y-116.0
X124.0Y-119.5
X124.0Y-123.0
X196.0Y-100.09
X196.0Y-103.59
X196.0Y-107.09
X196.0Y-110.59
T4
X172.0Y-95.46
X172.0Y-98.0
X172.0Y-100.54
X172.0Y-109.46
X172.0Y-112.0
X172.0Y-114.54
X185.0Y-95.46
X185.0Y-98.0
X185.0Y-100.54
X185.0Y-109.46
X185.0Y-112.0
X185.0Y-114.54
T5
X159.0Y-88.65
X159.0Y-101.35
X159.0Y-109.0
X159.0Y-121.7
X163.5Y-83.5
X163.5Y-126.5
X176.2Y-83.5
X176.2Y-126.5
X180.233Y-126.473
X180.3Y-83.5
X192.933Y-126.473
X193.0Y-83.5
M30
